<svg width="55" height="29" viewBox="0 0 55 29" fill="none" xmlns="http://www.w3.org/2000/svg">
<path fill-rule="evenodd" clip-rule="evenodd" d="M22.0059 12.5715C21.6156 12.1052 20.814 11.4451 19.9076 12.1979C19.2462 12.7473 18.856 13.617 19.4437 14.3706C19.888 14.9403 20.661 15.3009 21.3878 15.2226C22.4497 15.1081 23.2164 14.2287 23.556 13.2684C23.8302 12.4931 23.916 11.8041 23.6701 11.0049C23.0054 8.8434 20.2911 7.71115 18.3003 8.8815C16.9968 9.64787 16.0953 11.5427 15.8369 12.6983C15.3026 11.8177 14.878 10.8521 15.2452 9.84394C15.3371 9.59134 15.44 9.38702 15.5536 9.14645C15.7556 8.71906 15.5965 8.64821 15.1688 8.7315C14.4636 8.86883 14.0555 9.34519 13.5629 9.81514C12.692 8.33369 11.8553 7.68116 10.62 8.00591C10.1285 9.19376 10.6587 10.1065 12.0061 11.1678C11.4112 11.643 10.7845 12.049 10.6403 12.8537C10.5862 13.1555 10.7241 13.1422 10.9689 13.0768C11.3091 12.9858 11.9023 12.7413 12.2294 12.7617C13.0236 12.8114 13.8073 13.2292 14.4082 13.7311C12.597 14.365 11.0173 14.4728 10.0658 16.4282C9.65652 17.2692 9.54416 17.986 9.78095 18.8997C10.1232 20.2206 11.0893 21.2326 12.4243 21.5622C13.9565 21.9277 16.9196 20.6669 16.3395 18.5903C15.9868 17.3273 14.8206 17.041 13.9621 17.4716C12.384 18.2631 12.9888 19.3716 13.3224 19.8451C10.5564 19.57 11.8335 15.3734 15.2137 15.6316C16.6106 15.7383 17.5337 16.9821 17.7578 18.2211C18.1078 20.1558 17.3057 20.9489 16.8679 21.5696C17.6965 21.3681 18.4542 20.7867 18.8414 19.8824C19.2581 18.9093 19.0924 18.5211 18.9277 17.6598C19.8489 17.9999 21.1441 18.0725 22.4355 17.5848C24.3537 16.8604 26.1008 15.0759 27.3838 13.5161C30.3285 9.93064 32.4792 5.85221 37.2262 4.36043C40.3848 3.36787 43.0529 4.20237 45.703 6.0287C48.3306 7.83946 49.0431 9.87126 49.9891 12.7724C50.7294 9.6738 48.3932 5.15596 46.108 3.12619C43.9476 1.20717 40.8396 0.120069 37.9535 0.375201C33.22 0.793742 30.1399 3.74131 27.913 7.72276C26.4077 10.414 25.997 12.4673 23.9766 14.8756C22.7272 16.365 21.8389 16.7457 19.9457 16.5365C18.7175 16.4008 17.8707 15.2032 17.5655 14.3938C16.6605 11.4825 21.3523 8.06027 22.0059 12.5715V12.5715Z" fill="url(#paint0_linear_2721_12812)"/>
<path fill-rule="evenodd" clip-rule="evenodd" d="M15.5251 0C18.4786 0 22.4707 0.946726 23.339 4.24143C23.6562 5.44513 23.1424 5.9682 22.3682 6.94266C22.306 7.02093 22.2468 7.09483 22.1916 7.16296C22.1806 7.15246 22.1313 7.06654 22.1203 7.05613C20.3299 3.48953 16.9629 0.949675 12.902 0.244398C13.7521 0.0846295 14.6287 4.60694e-05 15.5251 4.60694e-05L15.5251 0Z" fill="url(#paint1_linear_2721_12812)"/>
<path fill-rule="evenodd" clip-rule="evenodd" d="M31.8601 23.0417L30.4968 24.2389C33.3949 26.7812 36.3674 28.2253 40.3543 28.2253C48.1486 28.2253 54.467 21.9069 54.467 14.1127C54.4527 9.24036 51.9746 4.71861 47.8292 2.14088C47.1629 1.72658 46.2417 1.19826 45.5064 0.919677C44.0644 0.373386 42.6491 0.108533 41.1067 0.101807C41.0698 0.101807 41.0334 0.103051 40.9966 0.103373C42.1469 0.241443 43.4377 0.619673 44.4508 1.18591C44.9458 1.46251 45.4847 1.83581 45.9297 2.18783C46.7608 2.84533 47.4897 3.60046 48.1272 4.44657C49.7179 6.56733 50.6666 9.24239 50.6666 12.1497C50.6666 17.973 46.6512 23.7431 40.3544 23.7431C38.6635 23.7431 37.1861 23.3523 35.8386 22.6092C34.5296 21.8873 32.9835 22.0554 31.8602 23.0417H31.8601Z" fill="url(#paint2_linear_2721_12812)"/>
<path fill-rule="evenodd" clip-rule="evenodd" d="M41.6374 19.7694C38.6917 20.0149 37.7186 18.12 35.2921 16.9669L35.0175 16.8365C35.951 16.6626 36.9182 16.7189 37.7538 17.0625C37.5671 15.7399 37.1396 15.2974 37.6334 13.7178C38.5622 10.7464 42.5277 11.3964 42.7304 14.0932C42.8066 15.1735 42.8005 14.6496 41.6897 14.2243C40.8537 13.9698 40.1332 14.22 39.8148 15.0596C39.6238 16.0992 40.1817 16.9335 41.1027 17.3861C44.8148 18.9237 47.8071 10.691 41.3266 9.62259C37.2435 8.94948 34.5407 13.1513 32.223 16.0778C26.7624 22.9729 21.4393 30.1892 11.3547 27.5592C-1.19636 24.2859 -3.98986 8.46786 7.47193 1.61319C8.70465 0.910006 10.5947 0.508124 11.9719 0.612793C15.7092 0.896678 18.748 3.11827 20.972 6.11319C14.1551 1.69715 5.44341 5.13319 5.11008 13.1429C4.7868 20.9121 13.3111 25.8078 20.3116 22.2893C25.0684 19.8985 29.5029 15.0592 33.273 11.274C36.1674 8.36802 39.9486 6.08174 44.0856 8.13217C49.422 10.777 48.3371 19.0805 41.6374 19.7694Z" fill="url(#paint3_linear_2721_12812)"/>
<defs>
<linearGradient id="paint0_linear_2721_12812" x1="50.1042" y1="9.69762" x2="11.1558" y2="11.8855" gradientUnits="userSpaceOnUse">
<stop stop-color="#8B63CB"/>
<stop offset="1" stop-color="#2AB9CB"/>
</linearGradient>
<linearGradient id="paint1_linear_2721_12812" x1="25.2818" y1="5.10278" x2="15.3768" y2="0.893699" gradientUnits="userSpaceOnUse">
<stop stop-color="#9B54CB"/>
<stop offset="1" stop-color="#3AAACB"/>
</linearGradient>
<linearGradient id="paint2_linear_2721_12812" x1="56.4907" y1="21.406" x2="39.1325" y2="15.7564" gradientUnits="userSpaceOnUse">
<stop stop-color="#007FD8"/>
<stop offset="1" stop-color="#43BCBD"/>
</linearGradient>
<linearGradient id="paint3_linear_2721_12812" x1="55.3549" y1="21.5676" x2="8.42523" y2="-4.12506" gradientUnits="userSpaceOnUse">
<stop stop-color="#007FD9"/>
<stop offset="1" stop-color="#66DEB0"/>
</linearGradient>
</defs>
</svg>
